<?xml version="1.0" encoding="UTF-8" standalone="no"?>
<!-- Created with Inkscape (http://www.inkscape.org/) -->

<svg
   xmlns:dc="http://purl.org/dc/elements/1.1/"
   xmlns:cc="http://creativecommons.org/ns#"
   xmlns:rdf="http://www.w3.org/1999/02/22-rdf-syntax-ns#"
   xmlns:svg="http://www.w3.org/2000/svg"
   xmlns="http://www.w3.org/2000/svg"
   xmlns:sodipodi="http://sodipodi.sourceforge.net/DTD/sodipodi-0.dtd"
   xmlns:inkscape="http://www.inkscape.org/namespaces/inkscape"
   id="svg2"
   version="1.1"
   inkscape:version="0.48.4 r9939"
   width="705"
   height="150"
   xml:space="preserve"
   sodipodi:docname="system_loop_3.pdf"><metadata
     id="metadata8"><rdf:RDF><cc:Work
         rdf:about=""><dc:format>image/svg+xml</dc:format><dc:type
           rdf:resource="http://purl.org/dc/dcmitype/StillImage" /><dc:title></dc:title></cc:Work></rdf:RDF></metadata><defs
     id="defs6"><clipPath
       clipPathUnits="userSpaceOnUse"
       id="clipPath18"><path
         d="M 0,120 564,120 564,0 0,0 0,120 z"
         id="path20" /></clipPath><clipPath
       clipPathUnits="userSpaceOnUse"
       id="clipPath50"><path
         d="M 0,0 564,0 564,120 0,120 0,0 z"
         id="path52" /></clipPath><clipPath
       clipPathUnits="userSpaceOnUse"
       id="clipPath78"><path
         d="M 0,0 564,0 564,120 0,120 0,0 z"
         id="path80" /></clipPath><clipPath
       clipPathUnits="userSpaceOnUse"
       id="clipPath132"><path
         d="M 0,0 564,0 564,120 0,120 0,0 z"
         id="path134" /></clipPath><clipPath
       clipPathUnits="userSpaceOnUse"
       id="clipPath156"><path
         d="M 0,0 564,0 564,120 0,120 0,0 z"
         id="path158" /></clipPath><clipPath
       clipPathUnits="userSpaceOnUse"
       id="clipPath176"><path
         d="M 0,0 564,0 564,120 0,120 0,0 z"
         id="path178" /></clipPath><clipPath
       clipPathUnits="userSpaceOnUse"
       id="clipPath240"><path
         d="M 0,0 564,0 564,120 0,120 0,0 z"
         id="path242" /></clipPath><clipPath
       clipPathUnits="userSpaceOnUse"
       id="clipPath256"><path
         d="M 0,0 564,0 564,120 0,120 0,0 z"
         id="path258" /></clipPath></defs><sodipodi:namedview
     pagecolor="#ffffff"
     bordercolor="#666666"
     borderopacity="1"
     objecttolerance="10"
     gridtolerance="10"
     guidetolerance="10"
     inkscape:pageopacity="0"
     inkscape:pageshadow="2"
     inkscape:window-width="1455"
     inkscape:window-height="841"
     id="namedview4"
     showgrid="false"
     inkscape:zoom="1.3600522"
     inkscape:cx="436.28928"
     inkscape:cy="73.738425"
     inkscape:window-x="73"
     inkscape:window-y="-8"
     inkscape:window-maximized="1"
     inkscape:current-layer="g10" /><g
     id="g10"
     inkscape:groupmode="layer"
     inkscape:label="system_loop_2"
     transform="matrix(1.25,0,0,-1.25,0,150)"><g
   id="g12"><g
     id="g14"><g
       id="g16"
       clip-path="url(#clipPath18)" /></g></g><g
   id="g22"
   transform="translate(505.95,73.759)"><path
     d="M 0,0 0,-12.833"
     style="fill:none;stroke:#231f20;stroke-opacity:1;stroke-width:1.5;stroke-linecap:butt;stroke-linejoin:miter;stroke-miterlimit:4;stroke-dasharray:none"
     id="path24" /></g><g
   id="g26"
   transform="translate(505.95,54.7328)"><path
     d="M 0,0 3.263,8.966 0,6.193 -3.263,8.966 0,0 z"
     style="fill:#231f20;fill-opacity:1;fill-rule:nonzero;stroke:none"
     id="path28" /></g><g
   id="g30"
   transform="translate(39.9898,26.3576)"><path
     d="M 0,0 466.71,0"
     style="fill:none;stroke:#231f20;stroke-opacity:1;stroke-width:1.5;stroke-linecap:butt;stroke-linejoin:miter;stroke-miterlimit:4;stroke-dasharray:none"
     id="path32" /></g><g
   id="g34"
   transform="translate(40.7398,25.6076)"><path
     d="M 0,0 0,39.418"
     style="fill:none;stroke:#231f20;stroke-opacity:1;stroke-width:1.5;stroke-linecap:butt;stroke-linejoin:miter;stroke-miterlimit:4;stroke-dasharray:none"
     id="path36" /></g><g
   id="g38"
   transform="translate(40.7398,71.2187)"><path
     d="M 0,0 -3.263,-8.967 0,-6.193 3.263,-8.967 0,0 z"
     style="fill:#231f20;fill-opacity:1;fill-rule:nonzero;stroke:none"
     id="path40" /></g><g
   id="g42"
   transform="translate(506.2,76.0219)"><path
     d="M 0,0 45.169,0"
     style="fill:none;stroke:#231f20;stroke-opacity:1;stroke-width:1.5;stroke-linecap:butt;stroke-linejoin:miter;stroke-miterlimit:4;stroke-dasharray:none"
     id="path44" /></g><g
   id="g46"><g
     id="g48"
     clip-path="url(#clipPath50)"><g
       id="g54"
       transform="translate(506.2,73.0219)"><path
         d="M 0,0 C 1.657,0 3,1.343 3,3 3,4.657 1.657,6 0,6 -1.657,6 -3,4.657 -3,3 -3,1.343 -1.657,0 0,0"
         style="fill:#231f20;fill-opacity:1;fill-rule:nonzero;stroke:none"
         id="path56" /></g><g
       id="g58"
       transform="translate(557.5623,76.0219)"><path
         d="M 0,0 -8.966,3.263 -6.193,0 -8.966,-3.263 0,0 z"
         style="fill:#231f20;fill-opacity:1;fill-rule:nonzero;stroke:none"
         id="path60" /></g></g></g><g
   id="g62"
   transform="translate(458.5876,76.2311)"><path
     d="M 0,0 14.619,0"
     style="fill:none;stroke:#231f20;stroke-opacity:1;stroke-width:1.5;stroke-linecap:butt;stroke-linejoin:miter;stroke-miterlimit:4;stroke-dasharray:none"
     id="path64" /></g><g
   id="g66"
   transform="translate(479.4,76.2311)"><path
     d="M 0,0 -8.966,3.263 -6.193,0 -8.966,-3.263 0,0 z"
     style="fill:#231f20;fill-opacity:1;fill-rule:nonzero;stroke:none"
     id="path68" /></g><g
   id="g70"
   transform="translate(6.0175,76.0219)"><path
     d="M 0,0 23.807,0"
     style="fill:none;stroke:#231f20;stroke-opacity:1;stroke-width:1.5;stroke-linecap:butt;stroke-linejoin:miter;stroke-miterlimit:4;stroke-dasharray:none"
     id="path72" /></g><g
   id="g74"><g
     id="g76"
     clip-path="url(#clipPath78)"><g
       id="g82"
       transform="translate(6.0175,73.0219)"><path
         d="M 0,0 C 1.657,0 3,1.343 3,3 3,4.657 1.657,6 0,6 -1.657,6 -3,4.657 -3,3 -3,1.343 -1.657,0 0,0"
         style="fill:#231f20;fill-opacity:1;fill-rule:nonzero;stroke:none"
         id="path84" /></g><g
       id="g86"
       transform="translate(36.0175,76.0219)"><path
         d="M 0,0 -8.966,3.263 -6.193,0 -8.966,-3.263 0,0 z"
         style="fill:#231f20;fill-opacity:1;fill-rule:nonzero;stroke:none"
         id="path88" /></g></g></g><text
   transform="matrix(1,0,0,-1,387.8945,70.8801)"
   id="text90"><tspan
     style="fill:#231f20;fill-opacity:1;fill-rule:nonzero;stroke:none;font-family:Times New Roman;font-variant:normal;font-weight:normal;font-stretch:normal;font-size:18;writing-mode:lr;-inkscape-font-specification:TimesNewRomanPSMT"
     x="0 10.008 15.012 23.004 32.004"
     y="0"
     sodipodi:role="line"
     id="tspan92">Plant</tspan></text>


<path
   d="m 354.953,50.619 102.884,0 0,53.003 -102.884,0 0,-53.003 z"
   style="fill:none;stroke:#231f20;stroke-opacity:1;stroke-width:1.5;stroke-linecap:butt;stroke-linejoin:miter;stroke-miterlimit:4;stroke-dasharray:none"
   id="path94" /><text
   transform="scale(1,-1)"
   id="text96"
   x="227.93106"
   y="-72.2687"><tspan
     style="font-size:18px;font-variant:normal;font-weight:normal;font-stretch:normal;writing-mode:lr-tb;fill:#231f20;fill-opacity:1;fill-rule:nonzero;stroke:none;font-family:Times New Roman;-inkscape-font-specification:TimesNewRomanPSMT"
     sodipodi:role="line"
     id="tspan98"
     x="227.93106"
     y="-72.2687">Allocation</tspan></text>



<path
   d="m 213.744,50.619 102.884,0 0,53.003 -102.884,0 0,-53.003 z"
   style="fill:none;stroke:#231f20;stroke-opacity:1;stroke-width:1.5;stroke-linecap:butt;stroke-linejoin:miter;stroke-miterlimit:4;stroke-dasharray:none"
   id="path104" /><text
   transform="matrix(1,0,0,-1,87.4114,70.8801)"
   id="text106"><tspan
     style="fill:#231f20;fill-opacity:1;fill-rule:nonzero;stroke:none;font-family:Times New Roman;font-variant:normal;font-weight:normal;font-stretch:normal;font-size:18;writing-mode:lr;-inkscape-font-specification:TimesNewRomanPSMT"
     x="0 12.006 21.006 30.006 35.01 41.004 50.004 55.008 60.012 68.004"
     y="0"
     sodipodi:role="line"
     id="tspan108">Controller</tspan></text>


<path
   d="m 72.962,50.619 102.884,0 0,53.003 -102.884,0 0,-53.003 z"
   style="fill:none;stroke:#231f20;stroke-opacity:1;stroke-width:1.5;stroke-linecap:butt;stroke-linejoin:miter;stroke-miterlimit:4;stroke-dasharray:none"
   id="path110" /><g
   id="g112"
   transform="translate(176.8467,76.0219)"><path
     d="M 0,0 29.704,0"
     style="fill:none;stroke:#231f20;stroke-opacity:1;stroke-width:1.5;stroke-linecap:butt;stroke-linejoin:miter;stroke-miterlimit:4;stroke-dasharray:none"
     id="path114" /></g><g
   id="g116"
   transform="translate(212.7438,76.0219)"><path
     d="M 0,0 -8.966,3.263 -6.193,0 -8.966,-3.263 0,0 z"
     style="fill:#231f20;fill-opacity:1;fill-rule:nonzero;stroke:none"
     id="path118" /></g><g
   id="g120"
   transform="translate(317.3781,76.0219)"><path
     d="M 0,0 30.382,0"
     style="fill:none;stroke:#231f20;stroke-opacity:1;stroke-width:1.5;stroke-linecap:butt;stroke-linejoin:miter;stroke-miterlimit:4;stroke-dasharray:none"
     id="path122" /></g><g
   id="g124"
   transform="translate(353.9533,76.0219)"><path
     d="M 0,0 -8.966,3.263 -6.193,0 -8.966,-3.263 0,0 z"
     style="fill:#231f20;fill-opacity:1;fill-rule:nonzero;stroke:none"
     id="path126" /></g><g
   id="g128"><g
     id="g130"
     clip-path="url(#clipPath132)"><g
       id="g136"
       transform="translate(484.15,72.2316)"><path
         d="M 0,0 C 2.209,0 4,1.791 4,4 4,6.209 2.209,8 0,8 -2.209,8 -4,6.209 -4,4 -4,1.791 -2.209,0 0,0 z"
         style="fill:none;stroke:#231f20;stroke-opacity:1;stroke-width:1.5;stroke-linecap:butt;stroke-linejoin:miter;stroke-miterlimit:4;stroke-dasharray:none"
         id="path138" /></g><g
       id="g140"
       transform="translate(505.95,45.9828)"><path
         d="M 0,0 C 2.209,0 4,1.791 4,4 4,6.209 2.209,8 0,8 -2.209,8 -4,6.209 -4,4 -4,1.791 -2.209,0 0,0 z"
         style="fill:none;stroke:#231f20;stroke-opacity:1;stroke-width:1.5;stroke-linecap:butt;stroke-linejoin:miter;stroke-miterlimit:4;stroke-dasharray:none"
         id="path142" /></g></g></g><g
   id="g144"
   transform="translate(488.4005,76.0219)"><path
     d="M 0,0 17.549,0"
     style="fill:none;stroke:#231f20;stroke-opacity:1;stroke-width:1.5;stroke-linecap:butt;stroke-linejoin:miter;stroke-miterlimit:4;stroke-dasharray:none"
     id="path146" /></g><g
   id="g148"
   transform="translate(484.15,109.0078)"><path
     d="M 0,0 0,-21.833"
     style="fill:none;stroke:#231f20;stroke-opacity:1;stroke-width:1.5;stroke-linecap:butt;stroke-linejoin:miter;stroke-miterlimit:4;stroke-dasharray:none"
     id="path150" /></g><g
   id="g152"><g
     id="g154"
     clip-path="url(#clipPath156)"><g
       id="g160"
       transform="translate(484.15,106.0078)"><path
         d="M 0,0 C 1.657,0 3,1.343 3,3 3,4.657 1.657,6 0,6 -1.657,6 -3,4.657 -3,3 -3,1.343 -1.657,0 0,0"
         style="fill:#231f20;fill-opacity:1;fill-rule:nonzero;stroke:none"
         id="path162" /></g><g
       id="g164"
       transform="translate(484.15,80.9816)"><path
         d="M 0,0 3.263,8.966 0,6.193 -3.263,8.966 0,0 z"
         style="fill:#231f20;fill-opacity:1;fill-rule:nonzero;stroke:none"
         id="path166" /></g></g></g><g
   id="g168"
   transform="translate(538.7263,49.9828)"><path
     d="M 0,0 -21.833,0"
     style="fill:none;stroke:#231f20;stroke-opacity:1;stroke-width:1.5;stroke-linecap:butt;stroke-linejoin:miter;stroke-miterlimit:4;stroke-dasharray:none"
     id="path170" /></g><g
   id="g172"><g
     id="g174"
     clip-path="url(#clipPath176)"><g
       id="g180"
       transform="translate(535.7263,49.9828)"><path
         d="M 0,0 C 0,-1.657 1.343,-3 3,-3 4.657,-3 6,-1.657 6,0 6,1.657 4.657,3 3,3 1.343,3 0,1.657 0,0"
         style="fill:#231f20;fill-opacity:1;fill-rule:nonzero;stroke:none"
         id="path182" /></g><g
       id="g184"
       transform="translate(510.7,49.9828)"><path
         d="M 0,0 8.966,-3.263 6.193,0 8.966,3.263 0,0 z"
         style="fill:#231f20;fill-opacity:1;fill-rule:nonzero;stroke:none"
         id="path186" /></g></g></g><g
   id="g188"
   transform="translate(505.95,45.2084)"><path
     d="M 0,0 0,-19.601"
     style="fill:none;stroke:#231f20;stroke-opacity:1;stroke-width:1.5;stroke-linecap:butt;stroke-linejoin:miter;stroke-miterlimit:4;stroke-dasharray:none"
     id="path190" /></g><text
   transform="matrix(1,0,0,-1,14.5572,90.1414)"
   id="text192"><tspan
     style="fill:#231f20;fill-opacity:1;fill-rule:nonzero;stroke:none;font-family:Times New Roman;font-variant:normal;font-weight:normal;font-stretch:normal;font-size:18;writing-mode:lr;-inkscape-font-specification:TimesNewRomanPSMT"
     x="0"
     y="0"
     id="tspan194">r</tspan></text>


<text
   transform="matrix(1,0,0,-1,528.6796,90.6458)"
   id="text196"><tspan
     style="fill:#231f20;fill-opacity:1;fill-rule:nonzero;stroke:none;font-family:Times New Roman;font-variant:normal;font-weight:normal;font-stretch:normal;font-size:18;writing-mode:lr;-inkscape-font-specification:TimesNewRomanPSMT"
     x="0"
     y="0"
     id="tspan198">y</tspan></text>


<text
   transform="scale(1,-1)"
   id="text200"
   x="180.39529"
   y="-90.0653"><tspan
     style="font-size:18px;font-variant:normal;font-weight:normal;font-stretch:normal;writing-mode:lr-tb;fill:#231f20;fill-opacity:1;fill-rule:nonzero;stroke:none;font-family:Times New Roman;-inkscape-font-specification:TimesNewRomanPSMT"
     x="180.39529"
     y="-90.0653"
     id="tspan202">α</tspan></text>


<text
   transform="scale(1,-1)"
   id="text204"
   x="190.40601"
   y="-84.071297"><tspan
     style="font-size:10.49400043px;font-variant:normal;font-weight:normal;font-stretch:normal;writing-mode:lr-tb;fill:#231f20;fill-opacity:1;fill-rule:nonzero;stroke:none;font-family:Times New Roman;-inkscape-font-specification:TimesNewRomanPSMT"
     x="190.40601 197.4055 200.32283 203.81734"
     y="-84.071297"
     sodipodi:role="line"
     id="tspan206">Ctrl</tspan></text>


<text
   transform="scale(1,-1)"
   id="text208"
   x="181.9953"
   y="-59.443001"><tspan
     style="font-size:18px;font-variant:normal;font-weight:normal;font-stretch:normal;writing-mode:lr-tb;fill:#231f20;fill-opacity:1;fill-rule:nonzero;stroke:none;font-family:Times New Roman;-inkscape-font-specification:TimesNewRomanPSMT"
     x="181.9953"
     y="-59.443001"
     id="tspan210">a</tspan></text>


<text
   transform="scale(1,-1)"
   id="text212"
   x="190.00009"
   y="-53.449001"><tspan
     style="font-size:10.49400043px;font-variant:normal;font-weight:normal;font-stretch:normal;writing-mode:lr-tb;fill:#231f20;fill-opacity:1;fill-rule:nonzero;stroke:none;font-family:Times New Roman;-inkscape-font-specification:TimesNewRomanPSMT"
     x="190.00009 196.99959 199.91692 203.41142"
     y="-53.449001"
     sodipodi:role="line"
     id="tspan214">Ctrl</tspan></text>


<text
   transform="matrix(1,0,0,-1,321.0047,90.1414)"
   id="text216"><tspan
     style="font-size:18px;font-variant:normal;font-weight:normal;font-stretch:normal;writing-mode:lr-tb;fill:#231f20;fill-opacity:1;fill-rule:nonzero;stroke:none;font-family:Times New Roman;-inkscape-font-specification:TimesNewRomanPSMT"
     x="0"
     y="0"
     id="tspan218">F<tspan
   style="font-size:52.00042725%;baseline-shift:sub"
   id="tspan3253">x,i</tspan></tspan></text>


<text
   transform="matrix(1,0,0,-1,321.0047,59.5192)"
   id="text224"><tspan
     style="font-size:18px;font-variant:normal;font-weight:normal;font-stretch:normal;writing-mode:lr-tb;fill:#231f20;fill-opacity:1;fill-rule:nonzero;stroke:none;font-family:Times New Roman;-inkscape-font-specification:TimesNewRomanPSMT"
     x="0"
     y="0"
     id="tspan226">F<tspan
   style="font-size:52.00042725%;baseline-shift:sub"
   id="tspan3251">y,i</tspan></tspan></text>


<text
   transform="matrix(1,0,0,-1,531.8981,32.7279)"
   id="text232"><tspan
     style="fill:#231f20;fill-opacity:1;fill-rule:nonzero;stroke:none;font-family:Times New Roman;font-variant:normal;font-weight:normal;font-stretch:normal;font-size:18;writing-mode:lr;-inkscape-font-specification:TimesNewRomanPSMT"
     x="0"
     y="0"
     id="tspan234">n</tspan></text>


<g
   id="g236"><g
     id="g238"
     clip-path="url(#clipPath240)"><text
   transform="matrix(1,0,0,-1,492.8589,103.862)"
   id="text244"><tspan
     style="fill:#231f20;fill-opacity:1;fill-rule:nonzero;stroke:none;font-family:Times New Roman;font-variant:normal;font-weight:normal;font-stretch:normal;font-size:18;writing-mode:lr;-inkscape-font-specification:TimesNewRomanPSMT"
     x="0"
     y="0"
     id="tspan246">d</tspan></text>


</g></g><g
   id="g248"
   transform="translate(29.4,66.45)"><path
     d="M 0,0 6.347,0"
     style="fill:none;stroke:#231f20;stroke-opacity:1;stroke-width:1.5;stroke-linecap:butt;stroke-linejoin:miter;stroke-miterlimit:4;stroke-dasharray:none"
     id="path250" /></g><g
   id="g252"><g
     id="g254"
     clip-path="url(#clipPath256)"><g
       id="g260"
       transform="translate(40.997,72.0219)"><path
         d="M 0,0 C 2.209,0 4,1.791 4,4 4,6.209 2.209,8 0,8 -2.209,8 -4,6.209 -4,4 -4,1.791 -2.209,0 0,0 z"
         style="fill:none;stroke:#231f20;stroke-opacity:1;stroke-width:1.5;stroke-linecap:butt;stroke-linejoin:miter;stroke-miterlimit:4;stroke-dasharray:none"
         id="path262" /></g></g></g><g
   id="g264"
   transform="translate(45.747,76.0219)"><path
     d="M 0,0 20.272,0"
     style="fill:none;stroke:#231f20;stroke-opacity:1;stroke-width:1.5;stroke-linecap:butt;stroke-linejoin:miter;stroke-miterlimit:4;stroke-dasharray:none"
     id="path266" /></g><g
   id="g268"
   transform="translate(72.2124,76.0219)"><path
     d="M 0,0 -8.966,3.263 -6.193,0 -8.966,-3.263 0,0 z"
     style="fill:#231f20;fill-opacity:1;fill-rule:nonzero;stroke:none"
     id="path270" /></g></g></svg>