<?xml version="1.0" encoding="UTF-8" standalone="no"?>
<!-- Created with Inkscape (http://www.inkscape.org/) -->

<svg
   xmlns:ns0="http://www.iki.fi/pav/software/textext/"
   xmlns:dc="http://purl.org/dc/elements/1.1/"
   xmlns:cc="http://creativecommons.org/ns#"
   xmlns:rdf="http://www.w3.org/1999/02/22-rdf-syntax-ns#"
   xmlns:svg="http://www.w3.org/2000/svg"
   xmlns="http://www.w3.org/2000/svg"
   xmlns:sodipodi="http://sodipodi.sourceforge.net/DTD/sodipodi-0.dtd"
   xmlns:inkscape="http://www.inkscape.org/namespaces/inkscape"
   sodipodi:docname="steepest_descent.svg"
   inkscape:version="0.48.2 r9819"
   version="1.1"
   id="svg2"
   height="297mm"
   width="210mm">
  <sodipodi:namedview
     id="base"
     pagecolor="#ffffff"
     bordercolor="#666666"
     borderopacity="1.0"
     inkscape:pageopacity="0.0"
     inkscape:pageshadow="2"
     inkscape:zoom="0.98994949"
     inkscape:cx="446.64857"
     inkscape:cy="660.82663"
     inkscape:document-units="px"
     inkscape:current-layer="g6387"
     showgrid="false"
     inkscape:window-width="1366"
     inkscape:window-height="705"
     inkscape:window-x="-8"
     inkscape:window-y="-8"
     inkscape:window-maximized="1" />
  <defs
     id="defs4">
    <marker
       inkscape:stockid="Arrow1Lend"
       orient="auto"
       refY="0.0"
       refX="0.0"
       id="Arrow1Lend"
       style="overflow:visible;">
      <path
         id="path3880"
         d="M 0.0,0.0 L 5.0,-5.0 L -12.5,0.0 L 5.0,5.0 L 0.0,0.0 z "
         style="fill-rule:evenodd;stroke:#000000;stroke-width:1.0pt;marker-start:none;"
         transform="scale(0.8) rotate(180) translate(12.5,0)" />
    </marker>
    <marker
       inkscape:stockid="Arrow2Mend"
       orient="auto"
       refY="0.0"
       refX="0.0"
       id="Arrow2Mend"
       style="overflow:visible;">
      <path
         id="path3904"
         style="font-size:12.0;fill-rule:evenodd;stroke-width:0.62500000;stroke-linejoin:round;"
         d="M 8.7185878,4.0337352 L -2.2072895,0.016013256 L 8.7185884,-4.0017078 C 6.9730900,-1.6296469 6.9831476,1.6157441 8.7185878,4.0337352 z "
         transform="scale(0.6) rotate(180) translate(0,0)" />
    </marker>
    <marker
       inkscape:stockid="Arrow2Lend"
       orient="auto"
       refY="0.0"
       refX="0.0"
       id="Arrow2Lend"
       style="overflow:visible;">
      <path
         id="path3898"
         style="font-size:12.0;fill-rule:evenodd;stroke-width:0.62500000;stroke-linejoin:round;"
         d="M 8.7185878,4.0337352 L -2.2072895,0.016013256 L 8.7185884,-4.0017078 C 6.9730900,-1.6296469 6.9831476,1.6157441 8.7185878,4.0337352 z "
         transform="scale(1.1) rotate(180) translate(1,0)" />
    </marker>
    <marker
       inkscape:stockid="Arrow2MendC"
       orient="auto"
       refY="0.0"
       refX="0.0"
       id="Arrow2MendC"
       style="overflow:visible;">
      <path
         id="path4695"
         style="stroke-linejoin:round;font-size:12.0;fill-rule:evenodd;stroke:#48b8c8;stroke-width:0.62500000;fill:#48b8c8"
         d="M 8.7185878,4.0337352 L -2.2072895,0.016013256 L 8.7185884,-4.0017078 C 6.9730900,-1.6296469 6.9831476,1.6157441 8.7185878,4.0337352 z "
         transform="scale(0.6) rotate(180) translate(0,0)" />
    </marker>
    <marker
       inkscape:stockid="Arrow2Mend9"
       orient="auto"
       refY="0.0"
       refX="0.0"
       id="Arrow2Mend9"
       style="overflow:visible;">
      <path
         id="path4698"
         style="stroke-linejoin:round;font-size:12.0;fill-rule:evenodd;stroke:#48b8c8;stroke-width:0.62500000;fill:#48b8c8"
         d="M 8.7185878,4.0337352 L -2.2072895,0.016013256 L 8.7185884,-4.0017078 C 6.9730900,-1.6296469 6.9831476,1.6157441 8.7185878,4.0337352 z "
         transform="scale(0.6) rotate(180) translate(0,0)" />
    </marker>
    <marker
       inkscape:stockid="Arrow2MendQ"
       orient="auto"
       refY="0.0"
       refX="0.0"
       id="Arrow2MendQ"
       style="overflow:visible;">
      <path
         id="path5128"
         style="stroke-linejoin:round;font-size:12.0;fill-rule:evenodd;stroke:#48b7c8;stroke-width:0.62500000;fill:#48b7c8"
         d="M 8.7185878,4.0337352 L -2.2072895,0.016013256 L 8.7185884,-4.0017078 C 6.9730900,-1.6296469 6.9831476,1.6157441 8.7185878,4.0337352 z "
         transform="scale(0.6) rotate(180) translate(0,0)" />
    </marker>
    <marker
       inkscape:stockid="Arrow2Mend2"
       orient="auto"
       refY="0.0"
       refX="0.0"
       id="Arrow2Mend2"
       style="overflow:visible;">
      <path
         id="path5131"
         style="stroke-linejoin:round;font-size:12.0;fill-rule:evenodd;stroke:#48b7c8;stroke-width:0.62500000;fill:#48b7c8"
         d="M 8.7185878,4.0337352 L -2.2072895,0.016013256 L 8.7185884,-4.0017078 C 6.9730900,-1.6296469 6.9831476,1.6157441 8.7185878,4.0337352 z "
         transform="scale(0.6) rotate(180) translate(0,0)" />
    </marker>
  </defs>
  <metadata
     id="metadata7">
    <rdf:RDF>
      <cc:Work
         rdf:about="">
        <dc:format>image/svg+xml</dc:format>
        <dc:type
           rdf:resource="http://purl.org/dc/dcmitype/StillImage" />
      </cc:Work>
    </rdf:RDF>
  </metadata>
  <g
     inkscape:label="Ebene 1"
     inkscape:groupmode="layer"
     id="layer1">
    <path
       style="fill:none;stroke:#000000;stroke-width:1px;stroke-linecap:butt;stroke-linejoin:miter;stroke-opacity:1;marker-end:url(#Arrow1Lend)"
       d="m 242.43662,542.23515 417.19299,0"
       id="path2985"
       inkscape:connector-curvature="0"
       sodipodi:nodetypes="cc" />
    <path
       style="fill:none;stroke:#000000;stroke-width:1px;stroke-linecap:butt;stroke-linejoin:miter;stroke-opacity:1;marker-end:url(#Arrow1Lend)"
       d="m 262.63966,567.48896 0,-237.38585"
       id="path2987"
       inkscape:connector-curvature="0"
       sodipodi:nodetypes="cc" />
    <path
       style="fill:none;stroke:#000000;stroke-width:1.25;stroke-linecap:butt;stroke-linejoin:miter;stroke-miterlimit:4;stroke-opacity:1;stroke-dasharray:none"
       d="m 279.41514,460.65564 c -4.02212,-43.24573 44.24537,-83.28803 108.60234,-86.49139 64.35681,-3.20346 247.37143,25.62705 245.36011,84.88954 -2.01102,59.26265 -195.0813,48.05076 -259.43816,49.65261 -64.35658,1.60176 -84.46822,-19.22013 -94.52429,-48.05076 z"
       id="path2989-0"
       inkscape:connector-curvature="0" />
    <path
       style="fill:none;stroke:#000000;stroke-width:1.25;stroke-linecap:butt;stroke-linejoin:miter;stroke-miterlimit:4;stroke-opacity:1;stroke-dasharray:none"
       d="m 304.58182,457.90983 c -3.44968,-37.09234 37.94989,-71.43709 93.14985,-74.1847 55.19955,-2.74761 212.17349,21.9805 210.44823,72.81085 -1.72467,50.83012 -167.32371,41.21347 -222.52315,42.5876 -55.1995,1.37394 -72.44963,-16.48522 -81.07493,-41.21375 z"
       id="path2989-9"
       inkscape:connector-curvature="0" />
    <path
       style="fill:none;stroke:#000000;stroke-width:1.25;stroke-linecap:butt;stroke-linejoin:miter;stroke-miterlimit:4;stroke-opacity:1;stroke-dasharray:none"
       d="m 327.4106,455.41914 c -2.93071,-31.51061 32.23907,-60.68727 79.13235,-63.02137 46.89311,-2.33417 180.24547,18.67293 178.78011,61.85424 -1.46539,43.18142 -142.14494,35.01185 -189.03808,36.17909 -46.89308,1.16704 -61.54712,-14.00472 -68.87438,-35.01196 z"
       id="path2989-48"
       inkscape:connector-curvature="0" />
    <path
       style="fill:none;stroke:#000000;stroke-width:1.25;stroke-linecap:butt;stroke-linejoin:miter;stroke-miterlimit:4;stroke-opacity:1;stroke-dasharray:none"
       d="m 349.13926,453.04853 c -2.43662,-26.19796 26.80352,-50.45544 65.79062,-52.39605 38.98698,-1.94065 149.85608,15.5247 148.63777,51.42567 -1.2182,35.90101 -118.17918,29.10881 -157.16625,30.0793 -38.9869,0.9703 -51.17029,-11.64357 -57.26214,-29.10892 z"
       id="path2989-8"
       inkscape:connector-curvature="0" />
    <path
       style="fill:none;stroke:#000000;stroke-width:1.25;stroke-linecap:butt;stroke-linejoin:miter;stroke-miterlimit:4;stroke-opacity:1;stroke-dasharray:none"
       d="m 437.27473,443.4328 c -0.43236,-4.64874 4.75609,-8.95313 11.6742,-9.29749 6.91802,-0.34422 26.59104,2.75483 26.37479,9.12522 -0.21548,6.3704 -20.97001,5.16514 -27.88809,5.33742 -6.918,0.17161 -9.07993,-2.06599 -10.1609,-5.16515 z"
       id="path2989-8-51"
       inkscape:connector-curvature="0" />
    <path
       style="fill:none;stroke:#000000;stroke-width:1.25;stroke-linecap:butt;stroke-linejoin:miter;stroke-miterlimit:4;stroke-opacity:1;stroke-dasharray:none"
       d="m 403.32323,447.13685 c -1.20418,-12.94977 13.24931,-24.94035 32.52118,-25.89972 19.27149,-0.95929 74.07496,7.67395 73.47257,25.42016 -0.60196,17.74599 -58.41675,14.3884 -77.68842,14.86836 -19.27129,0.47979 -25.29391,-5.75529 -28.30533,-14.3888 z"
       id="path2989-8-7"
       inkscape:connector-curvature="0" />
    <path
       style="fill:none;stroke:#000000;stroke-width:1.25;stroke-linecap:butt;stroke-linejoin:miter;stroke-miterlimit:4;stroke-opacity:1;stroke-dasharray:none"
       d="m 376.23118,450.09268 c -1.82014,-19.57385 20.02669,-37.69776 49.15616,-39.14793 29.12922,-1.4499 111.96568,11.59944 111.05502,38.42289 -0.91003,26.82345 -88.29822,21.74851 -117.4273,22.47392 -29.12886,0.72524 -38.23197,-8.69921 -42.78388,-21.74888 z"
       id="path2989-8-1"
       inkscape:connector-curvature="0" />
    <path
       sodipodi:nodetypes="ccccccc"
       style="fill:none;stroke:#48b7c8;stroke-width:1.25;stroke-linecap:butt;stroke-linejoin:miter;stroke-miterlimit:4;stroke-opacity:1;stroke-dasharray:none;marker-mid:url(#Arrow2MendC);marker-end:url(#Arrow2Mend9)"
       d="m 355.06862,508.45843 0.29586,-9.6332 2.46412,-10.86064 7.59408,-13.0937 13.15737,-14.41504 23.26012,-10.16349 22.15241,-3.62739"
       id="path3872"
       inkscape:connector-curvature="0" />
    <path
       inkscape:connector-curvature="0"
       id="path4738"
       d="M 632.14286,465.93361 608.92857,448.07647 586.07143,459.86218 565,448.07647 l -28.21428,5.71428 -26.07143,-10.35714 -17.85715,2.5"
       style="fill:none;stroke:#48b7c8;stroke-width:1px;stroke-linecap:butt;stroke-linejoin:miter;stroke-opacity:1;marker-mid:url(#Arrow2MendQ);marker-end:url(#Arrow2Mend2)"
       sodipodi:nodetypes="ccccccc" />
    <g
       style="font-style:normal;font-variant:normal;font-weight:normal;font-stretch:normal;letter-spacing:normal;word-spacing:normal;text-anchor:start;fill:none;stroke:#000000;stroke-linecap:butt;stroke-linejoin:miter;stroke-miterlimit:10.43299961;stroke-opacity:1;stroke-dasharray:none;stroke-dashoffset:0"
       id="content"
       transform="matrix(2.734098,0,0,-2.734098,5.6094311,2506.9921)"
       xml:space="preserve"
       stroke-miterlimit="10.433"
       font-style="normal"
       font-variant="normal"
       font-weight="normal"
       font-stretch="normal"
       font-size-adjust="none"
       letter-spacing="normal"
       word-spacing="normal"
       ns0:text="$\\theta_1$\n"
       ns0:preamble="">
<path
   style="fill:#000000;stroke-width:0"
   inkscape:connector-curvature="0"
   d="m 227.97,712.1 0,0.06 0,0.07 -0.01,0.07 0,0.08 -0.01,0.07 -0.01,0.08 0,0.08 -0.02,0.09 -0.01,0.08 -0.01,0.09 -0.02,0.08 -0.02,0.09 -0.03,0.08 -0.02,0.08 -0.03,0.09 -0.03,0.08 -0.03,0.08 -0.04,0.07 -0.04,0.08 -0.04,0.07 -0.05,0.07 -0.05,0.06 -0.05,0.06 -0.06,0.05 -0.06,0.05 -0.04,0.03 -0.03,0.02 -0.04,0.02 -0.03,0.02 -0.04,0.01 -0.04,0.02 -0.03,0.01 -0.04,0.02 -0.05,0.01 -0.04,0.01 -0.04,0 -0.05,0.01 -0.04,0 -0.05,0 -0.01,-0.22 c 0.49,0 0.55,-0.63 0.55,-1.2 0,-0.49 -0.08,-1 -0.32,-1.98 h -2.08 c 0.17,0.64 0.37,1.43 0.77,2.14 0.26,0.48 0.63,1.04 1.08,1.04 l 0.01,0.22 c -1.38,0 -2.92,-2.8 -2.92,-5.08 0,-0.94 0.29,-2.04 1.2,-2.04 v 0.21 c -0.33,0 -0.54,0.29 -0.54,1.22 0,0.42 0.06,0.99 0.32,1.97 h 2.07 c -0.11,-0.46 -0.32,-1.3 -0.7,-2.02 -0.35,-0.68 -0.72,-1.17 -1.15,-1.17 v -0.21 c 1.4,0 2.92,2.85 2.92,5.08 z"
   id="path5593" />
<path
   style="fill:#000000;stroke-width:0"
   inkscape:connector-curvature="0"
   d="m 230.44,710.05 0,0.01 0,0.01 0,0.01 0,0.01 0,0 0,0.01 0,0.01 0,0.01 0,0 0,0.01 0,0 0,0.01 0,0.01 0,0 0,0.01 0,0 0,0.01 -0.01,0 0,0.01 0,0.01 0,0.01 -0.01,0 0,0.01 0,0.01 -0.01,0 0,0.01 -0.01,0 -0.01,0 -0.01,0.01 0,0 -0.01,0 -0.01,0 -0.01,0 0,0 -0.01,0 0,0.01 -0.01,0 -0.01,0 0,0 -0.01,0 -0.01,0 0,0 -0.01,0 -0.01,0 0,0 -0.01,0 -0.01,0 -0.01,0 -0.01,0 -0.01,0 c -0.44,-0.44 -1.08,-0.45 -1.36,-0.45 v -0.25 c 0.17,0 0.62,0 1.01,0.2 v -3.55 c 0,-0.23 0,-0.32 -0.7,-0.32 h -0.26 v -0.25 c 0.12,0.01 0.98,0.03 1.24,0.03 0.21,0 1.09,-0.02 1.24,-0.03 v 0.25 h -0.26 c -0.7,0 -0.7,0.09 -0.7,0.32 z"
   id="path5595" />
</g>    <g
       style="font-style:normal;font-variant:normal;font-weight:normal;font-stretch:normal;letter-spacing:normal;word-spacing:normal;text-anchor:start;fill:none;stroke:#000000;stroke-linecap:butt;stroke-linejoin:miter;stroke-miterlimit:10.43299961;stroke-opacity:1;stroke-dasharray:none;stroke-dashoffset:0"
       ns0:preamble=""
       ns0:text="$\\theta_2$\n\n"
       word-spacing="normal"
       letter-spacing="normal"
       font-size-adjust="none"
       font-stretch="normal"
       font-weight="normal"
       font-variant="normal"
       font-style="normal"
       stroke-miterlimit="10.433"
       xml:space="preserve"
       transform="matrix(2.734098,0,0,-2.734098,-383.40695,2301.6104)"
       id="g5685">
<path
   id="path5687"
   d="m 227.97,712.1 0,0.06 0,0.07 -0.01,0.07 0,0.08 -0.01,0.07 -0.01,0.08 0,0.08 -0.02,0.09 -0.01,0.08 -0.01,0.09 -0.02,0.08 -0.02,0.09 -0.03,0.08 -0.02,0.08 -0.03,0.09 -0.03,0.08 -0.03,0.08 -0.04,0.07 -0.04,0.08 -0.04,0.07 -0.05,0.07 -0.05,0.06 -0.05,0.06 -0.06,0.05 -0.06,0.05 -0.04,0.03 -0.03,0.02 -0.04,0.02 -0.03,0.02 -0.04,0.01 -0.04,0.02 -0.03,0.01 -0.04,0.02 -0.05,0.01 -0.04,0.01 -0.04,0 -0.05,0.01 -0.04,0 -0.05,0 -0.01,-0.22 c 0.49,0 0.55,-0.63 0.55,-1.2 0,-0.49 -0.08,-1 -0.32,-1.98 h -2.08 c 0.17,0.64 0.37,1.43 0.77,2.14 0.26,0.48 0.63,1.04 1.08,1.04 l 0.01,0.22 c -1.38,0 -2.92,-2.8 -2.92,-5.08 0,-0.94 0.29,-2.04 1.2,-2.04 v 0.21 c -0.33,0 -0.54,0.29 -0.54,1.22 0,0.42 0.06,0.99 0.32,1.97 h 2.07 c -0.11,-0.46 -0.32,-1.3 -0.7,-2.02 -0.35,-0.68 -0.72,-1.17 -1.15,-1.17 v -0.21 c 1.4,0 2.92,2.85 2.92,5.08 z"
   inkscape:connector-curvature="0"
   style="fill:#000000;stroke-width:0" />
<path
   id="path5689"
   d="m 231.63,706.9 h -0.24 c -0.02,-0.16 -0.09,-0.57 -0.18,-0.64 -0.06,-0.04 -0.59,-0.04 -0.69,-0.04 h -1.28 c 0.73,0.65 0.97,0.84 1.39,1.17 0.52,0.41 1,0.84 1,1.5 0,0.84 -0.74,1.36 -1.63,1.36 -0.87,0 -1.45,-0.61 -1.45,-1.25 0,-0.35 0.3,-0.39 0.37,-0.39 0.16,0 0.37,0.12 0.37,0.37 0,0.13 -0.05,0.37 -0.41,0.37 0.21,0.49 0.69,0.65 1.01,0.65 0.7,0 1.06,-0.54 1.06,-1.11 0,-0.6 -0.43,-1.08 -0.65,-1.33 l -1.68,-1.66 c -0.07,-0.06 -0.07,-0.07 -0.07,-0.27 h 2.87 z"
   inkscape:connector-curvature="0"
   style="fill:#000000;stroke-width:0" />
</g>    <g
       fill="none"
       fill-opacity="1"
       fill-rule="evenodd"
       stroke="black"
       stroke-linecap="butt"
       stroke-linejoin="miter"
       stroke-opacity="1"
       stroke-dasharray="none"
       stroke-dashoffset="0"
       text-anchor="start"
       id="g5785"
       transform="matrix(2.734098,0,0,-2.734098,-199.40956,2273.0186)"
       xml:space="preserve"
       stroke-miterlimit="10.433"
       font-style="normal"
       font-variant="normal"
       font-weight="normal"
       font-stretch="normal"
       font-size-adjust="none"
       letter-spacing="normal"
       word-spacing="normal"
       ns0:text="$r(\\theta_1, \\theta_2)$\n\n\n"
       ns0:preamble=""
       style="font-style:normal;font-variant:normal;font-weight:normal;font-stretch:normal;letter-spacing:normal;word-spacing:normal;text-anchor:start;fill:none;stroke:#000000;stroke-linecap:butt;stroke-linejoin:miter;stroke-miterlimit:10.43299961;stroke-opacity:1;stroke-dasharray:none;stroke-dashoffset:0">








<g
   ns0:preamble=""
   ns0:text="$S(\\theta_1, \\theta_2)$\n"
   word-spacing="normal"
   letter-spacing="normal"
   font-size-adjust="none"
   font-stretch="normal"
   font-weight="normal"
   font-variant="normal"
   font-style="normal"
   stroke-miterlimit="10.433"
   xml:space="preserve"
   transform="matrix(0.98150866,0,0,0.98150866,23.140219,5.8845887)"
   id="g6387"
   style="font-style:normal;font-variant:normal;font-weight:normal;font-stretch:normal;letter-spacing:normal;word-spacing:normal;text-anchor:start;fill:none;stroke:#000000;stroke-linecap:butt;stroke-linejoin:miter;stroke-miterlimit:10.43299961;stroke-opacity:1;stroke-dasharray:none;stroke-dashoffset:0">
<path
   id="path6389"
   d="m 229.86,714.04 0,0 0,0.01 0,0 0,0 0,0.01 0,0 0,0.01 0,0 0,0 -0.01,0.01 0,0 0,0.01 0,0 0,0 -0.01,0.01 0,0 0,0.01 -0.01,0 0,0 0,0.01 -0.01,0 0,0 -0.01,0.01 0,0 -0.01,0 0,0 0,0 -0.01,0.01 0,0 0,0 -0.01,0 0,0 0,0 -0.01,0 0,0 -0.01,0 0,0 0,0 -0.01,0 c -0.05,0 -0.06,-0.01 -0.18,-0.15 l -0.48,-0.57 c -0.25,0.47 -0.77,0.72 -1.42,0.72 -1.27,0 -2.46,-1.14 -2.46,-2.35 0,-0.8 0.53,-1.26 1.03,-1.41 l 1.07,-0.28 c 0.37,-0.09 0.92,-0.24 0.92,-1.05 0,-0.9 -0.82,-1.83 -1.8,-1.83 -0.64,0 -1.74,0.21 -1.74,1.45 0,0.24 0.05,0.48 0.06,0.54 0.01,0.03 0.02,0.05 0.02,0.07 0,0.09 -0.07,0.1 -0.12,0.1 -0.05,0 -0.07,-0.01 -0.1,-0.04 -0.04,-0.04 -0.6,-2.31 -0.6,-2.33 0,-0.06 0.05,-0.1 0.11,-0.1 0.05,0 0.06,0.01 0.18,0.14 l 0.49,0.57 c 0.43,-0.58 1.1,-0.71 1.68,-0.71 1.36,0 2.54,1.32 2.54,2.55 0,0.69 -0.34,1.03 -0.49,1.17 -0.23,0.23 -0.38,0.27 -1.27,0.5 -0.22,0.06 -0.58,0.15 -0.67,0.17 -0.27,0.1 -0.61,0.38 -0.61,0.91 0,0.81 0.8,1.65 1.75,1.65 0.83,0 1.43,-0.43 1.43,-1.54 0,-0.32 -0.04,-0.5 -0.04,-0.56 0,-0.01 0,-0.1 0.12,-0.1 0.1,0 0.11,0.03 0.15,0.2 z"
   inkscape:connector-curvature="0"
   style="fill:#000000;stroke-width:0" />
<path
   id="path6391"
   d="m 233.41,704.74 0,0 0,0.01 0,0 0,0 0,0.01 0,0 0,0 0,0.01 0,0 0,0 -0.01,0.01 0,0 0,0.01 -0.01,0 0,0.01 -0.01,0.01 0,0 -0.01,0.01 0,0 0,0.01 -0.01,0 0,0.01 0,0 -0.01,0 0,0.01 -0.01,0 0,0.01 -0.01,0 0,0.01 -0.01,0 0,0.01 -0.01,0.01 0,0 -0.01,0.01 -0.01,0 0,0.01 -0.01,0.01 -0.01,0.01 0,0 -0.01,0.01 -0.01,0.01 -0.01,0.01 c -1.24,1.25 -1.56,3.13 -1.56,4.65 0,1.73 0.38,3.47 1.61,4.71 0.12,0.12 0.12,0.14 0.12,0.17 0,0.07 -0.03,0.1 -0.09,0.1 -0.11,0 -1,-0.68 -1.59,-1.94 -0.51,-1.1 -0.63,-2.2 -0.63,-3.04 0,-0.77 0.11,-1.98 0.66,-3.1 0.6,-1.23 1.45,-1.87 1.56,-1.87 0.06,0 0.09,0.03 0.09,0.1 z"
   inkscape:connector-curvature="0"
   style="fill:#000000;stroke-width:0" />
<path
   id="path6393"
   d="m 238.53,712.1 0,0.06 -0.01,0.07 0,0.07 0,0.08 -0.01,0.07 -0.01,0.08 -0.01,0.08 -0.01,0.09 -0.01,0.08 -0.02,0.09 -0.01,0.08 -0.02,0.09 -0.03,0.08 -0.02,0.08 -0.03,0.09 -0.03,0.08 -0.03,0.08 -0.04,0.07 -0.04,0.08 -0.05,0.07 -0.04,0.07 -0.05,0.06 -0.06,0.06 -0.05,0.05 -0.07,0.05 -0.03,0.03 -0.03,0.02 -0.04,0.02 -0.03,0.02 -0.04,0.01 -0.04,0.02 -0.04,0.01 -0.04,0.02 -0.04,0.01 -0.04,0.01 -0.04,0 -0.05,0.01 -0.04,0 -0.05,0 -0.01,-0.22 c 0.49,0 0.55,-0.63 0.55,-1.2 0,-0.49 -0.08,-1 -0.32,-1.98 h -2.09 c 0.17,0.64 0.37,1.43 0.77,2.14 0.27,0.48 0.64,1.04 1.09,1.04 l 0.01,0.22 c -1.39,0 -2.92,-2.8 -2.92,-5.08 0,-0.94 0.29,-2.04 1.19,-2.04 v 0.21 c -0.32,0 -0.53,0.29 -0.53,1.22 0,0.42 0.06,0.99 0.32,1.97 h 2.07 c -0.11,-0.46 -0.32,-1.3 -0.7,-2.02 -0.35,-0.68 -0.73,-1.17 -1.16,-1.17 v -0.21 c 1.41,0 2.93,2.85 2.93,5.08 z"
   inkscape:connector-curvature="0"
   style="fill:#000000;stroke-width:0" />
<path
   id="path6395"
   d="m 241,710.05 0,0.01 0,0.01 0,0.01 0,0.01 0,0 0,0.01 0,0.01 0,0.01 0,0 0,0.01 0,0 0,0.01 0,0.01 0,0 0,0.01 -0.01,0 0,0.01 0,0 0,0.01 0,0.01 0,0.01 -0.01,0 0,0.01 -0.01,0.01 0,0 -0.01,0.01 0,0 -0.01,0 -0.01,0.01 -0.01,0 0,0 -0.01,0 -0.01,0 0,0 -0.01,0 -0.01,0.01 0,0 -0.01,0 0,0 -0.01,0 -0.01,0 0,0 -0.01,0 -0.01,0 -0.01,0 0,0 -0.01,0 -0.01,0 -0.01,0 -0.01,0 c -0.44,-0.44 -1.08,-0.45 -1.36,-0.45 v -0.25 c 0.16,0 0.62,0 1.01,0.2 v -3.55 c 0,-0.23 0,-0.32 -0.7,-0.32 h -0.26 v -0.25 c 0.12,0.01 0.98,0.03 1.23,0.03 0.22,0 1.1,-0.02 1.25,-0.03 v 0.25 h -0.26 c -0.7,0 -0.7,0.09 -0.7,0.32 z"
   inkscape:connector-curvature="0"
   style="fill:#000000;stroke-width:0" />
<path
   id="path6397"
   d="m 245.16,707.14 0,0.06 0,0.06 -0.01,0.05 0,0.06 -0.01,0.05 -0.01,0.06 0,0.05 -0.02,0.05 -0.01,0.04 -0.01,0.05 -0.01,0.04 -0.02,0.04 -0.02,0.04 -0.01,0.04 -0.02,0.04 -0.02,0.03 -0.02,0.04 -0.03,0.03 -0.02,0.03 -0.03,0.02 -0.02,0.03 -0.03,0.02 -0.03,0.02 -0.02,0.02 -0.03,0.02 -0.04,0.01 -0.03,0.01 -0.03,0.01 -0.03,0.01 -0.04,0.01 -0.03,0 -0.04,0 c -0.33,0 -0.53,-0.25 -0.53,-0.53 0,-0.27 0.2,-0.52 0.53,-0.52 0.12,0 0.25,0.03 0.35,0.12 0.03,0.02 0.04,0.03 0.05,0.03 0.01,0 0.02,-0.01 0.02,-0.14 0,-0.74 -0.35,-1.34 -0.68,-1.67 -0.11,-0.11 -0.11,-0.13 -0.11,-0.16 0,-0.07 0.05,-0.11 0.1,-0.11 0.11,0 0.91,0.77 0.91,1.94 z"
   inkscape:connector-curvature="0"
   style="fill:#000000;stroke-width:0" />
<path
   id="path6399"
   d="m 252.1,712.1 0,0.06 0,0.07 0,0.07 -0.01,0.08 0,0.07 -0.01,0.08 -0.01,0.08 -0.01,0.09 -0.01,0.08 -0.02,0.09 -0.02,0.08 -0.02,0.09 -0.02,0.08 -0.02,0.08 -0.03,0.09 -0.03,0.08 -0.04,0.08 -0.03,0.07 -0.04,0.08 -0.05,0.07 -0.04,0.07 -0.05,0.06 -0.06,0.06 -0.06,0.05 -0.06,0.05 -0.03,0.03 -0.03,0.02 -0.04,0.02 -0.04,0.02 -0.03,0.01 -0.04,0.02 -0.04,0.01 -0.04,0.02 -0.04,0.01 -0.04,0.01 -0.05,0 -0.04,0.01 -0.05,0 -0.04,0 -0.01,-0.22 c 0.48,0 0.55,-0.63 0.55,-1.2 0,-0.49 -0.08,-1 -0.32,-1.98 h -2.09 c 0.17,0.64 0.37,1.43 0.77,2.14 0.27,0.48 0.64,1.04 1.09,1.04 l 0.01,0.22 c -1.39,0 -2.92,-2.8 -2.92,-5.08 0,-0.94 0.28,-2.04 1.19,-2.04 v 0.21 c -0.33,0 -0.54,0.29 -0.54,1.22 0,0.42 0.06,0.99 0.32,1.97 h 2.08 c -0.11,-0.46 -0.32,-1.3 -0.7,-2.02 -0.35,-0.68 -0.73,-1.17 -1.16,-1.17 v -0.21 c 1.41,0 2.92,2.85 2.92,5.08 z"
   inkscape:connector-curvature="0"
   style="fill:#000000;stroke-width:0" />
<path
   id="path6401"
   d="m 255.76,706.9 h -0.24 c -0.02,-0.16 -0.09,-0.57 -0.18,-0.64 -0.06,-0.04 -0.59,-0.04 -0.69,-0.04 h -1.28 c 0.73,0.65 0.97,0.84 1.39,1.17 0.52,0.41 1,0.84 1,1.5 0,0.84 -0.74,1.36 -1.63,1.36 -0.87,0 -1.45,-0.61 -1.45,-1.25 0,-0.35 0.3,-0.39 0.37,-0.39 0.17,0 0.37,0.12 0.37,0.37 0,0.13 -0.05,0.37 -0.41,0.37 0.21,0.49 0.69,0.65 1.01,0.65 0.7,0 1.06,-0.54 1.06,-1.11 0,-0.6 -0.43,-1.08 -0.65,-1.33 l -1.68,-1.66 c -0.07,-0.06 -0.07,-0.07 -0.07,-0.27 h 2.87 z"
   inkscape:connector-curvature="0"
   style="fill:#000000;stroke-width:0" />
<path
   id="path6403"
   d="m 259.59,709.61 0,0.08 0,0.07 0,0.08 0,0.08 -0.01,0.17 -0.01,0.18 -0.02,0.18 -0.02,0.19 -0.03,0.2 -0.03,0.19 -0.04,0.21 -0.05,0.21 -0.05,0.21 -0.06,0.21 -0.07,0.21 -0.08,0.21 -0.04,0.11 -0.05,0.11 -0.05,0.1 -0.05,0.11 c -0.6,1.22 -1.45,1.87 -1.55,1.87 -0.06,0 -0.1,-0.04 -0.1,-0.1 0,-0.03 0,-0.05 0.19,-0.23 0.97,-0.98 1.54,-2.57 1.54,-4.65 0,-1.7 -0.37,-3.45 -1.6,-4.7 -0.13,-0.12 -0.13,-0.14 -0.13,-0.17 0,-0.06 0.04,-0.1 0.1,-0.1 0.1,0 1,0.67 1.58,1.94 0.51,1.09 0.63,2.2 0.63,3.03 z"
   inkscape:connector-curvature="0"
   style="fill:#000000;stroke-width:0" />
</g>
</g>  </g>
</svg>
